<svg width="96" height="23" viewBox="0 0 96 23" fill="none" xmlns="http://www.w3.org/2000/svg">
<path fill-rule="evenodd" clip-rule="evenodd" d="M95.5058 17.3601C95.9999 15.4601 95.9999 11.5199 95.9999 11.5199C95.9999 11.5199 96.0198 7.56009 95.5058 5.6601C95.2289 4.62013 94.4184 3.79984 93.3904 3.51998C91.5124 3 84.0001 3 84.0001 3C84.0001 3 76.4878 3 74.6098 3.50012C73.6014 3.77998 72.771 4.62013 72.4944 5.6601C72 7.56009 72 11.5 72 11.5C72 11.5 72 15.4601 72.4944 17.3399C72.7713 18.3799 73.5818 19.2002 74.6098 19.48C76.5075 20 84.0001 20 84.0001 20C84.0001 20 91.5124 20 93.3904 19.4999C94.4184 19.22 95.2289 18.4 95.5058 17.3601ZM87.855 11.5L81.608 15.1399V7.86011L87.855 11.5Z" fill="#52BFFF"/>
<path d="M48.137 4.71541C48.1678 4.68052 48.3121 4.56654 48.8788 4.56654L50.5972 4.56585C51.2016 4.56585 51.6931 4.07331 51.6931 3.46782V1.10252C51.6931 0.498069 51.2023 0.00552645 50.5989 0.00449022L48.8337 0C47.1305 0 46.11 0.118984 45.074 1.18403C44.0425 2.24424 43.4972 3.72428 43.4972 5.4639V7.66221H41.3861C40.7817 7.66221 40.29 8.15476 40.29 8.76024V11.376C40.29 11.9814 40.7817 12.474 41.3861 12.474H43.4972V21.0944C43.4972 21.6998 43.9889 22.1924 44.5933 22.1924H46.9294C47.5338 22.1924 48.0254 21.6998 48.0254 21.0944V12.4742H50.606C51.2104 12.4742 51.7019 11.9814 51.7019 11.3763L51.7033 8.76042C51.7033 8.36269 51.4873 7.99466 51.1394 7.80003C50.9782 7.70988 50.7906 7.66221 50.5972 7.66221H48.0254V5.38842C48.0254 4.93664 48.0861 4.77309 48.137 4.71541Z" fill="#52BFFF"/>
<path fill-rule="evenodd" clip-rule="evenodd" d="M14.6907 0.896088H5.59924C2.51182 0.896088 0 3.40803 0 6.49544V15.5869C0 18.6744 2.51182 21.1863 5.59924 21.1863H14.6907C17.7784 21.1863 20.2902 18.6743 20.2902 15.5869V6.49544C20.2903 3.40803 17.7784 0.896088 14.6907 0.896088ZM10.145 5.81292C7.2621 5.81292 4.91674 8.15827 4.91674 11.0412C4.91674 13.924 7.2621 16.2692 10.145 16.2692C13.0279 16.2692 15.3733 13.924 15.3733 11.0412C15.3733 8.15827 13.0279 5.81292 10.145 5.81292ZM10.145 14.4688C8.25487 14.4688 6.71698 12.9312 6.71698 11.0411C6.71698 9.15081 8.25475 7.61304 10.145 7.61304C12.0353 7.61304 13.573 9.15081 13.573 11.0411C13.573 12.9312 12.0351 14.4688 10.145 14.4688ZM14.66 4.6729C14.905 4.42687 15.2457 4.28645 15.5925 4.28645C15.9406 4.28645 16.2814 4.42687 16.5263 4.6729C16.7723 4.91773 16.9127 5.25858 16.9127 5.60663C16.9127 5.95347 16.7723 6.29432 16.5263 6.54035C16.2802 6.78518 15.9406 6.9268 15.5925 6.9268C15.2457 6.9268 14.9048 6.78518 14.66 6.54035C14.414 6.29432 14.2723 5.95359 14.2723 5.60663C14.2723 5.25858 14.4138 4.91773 14.66 4.6729Z" fill="#52BFFF"/>
</svg>
